<?xml version="1.0" standalone="no"?>
<!DOCTYPE svg PUBLIC "-//W3C//DTD SVG 20010904//EN"
 "http://www.w3.org/TR/2001/REC-SVG-20010904/DTD/svg10.dtd">
<svg version="1.0" xmlns="http://www.w3.org/2000/svg"
 width="880.000000pt" height="880.000000pt" viewBox="0 0 880.000000 880.000000"
 preserveAspectRatio="xMidYMid meet">
<metadata>
Created by potrace 1.14, written by Peter Selinger 2001-2017
</metadata>
<g transform="translate(0.000000,880.000000) scale(0.100000,-0.100000)"
fill="#000000" stroke="none">
<path d="M160 8027 c-52 -16 -109 -75 -128 -133 -16 -45 -17 -266 -17 -2894 1
-2721 2 -2847 19 -2882 24 -50 62 -87 114 -110 43 -19 107 -20 4257 -20 l4214
0 48 26 c53 30 96 82 110 136 5 21 9 1174 8 2875 l-1 2840 -21 46 c-22 49 -50
80 -98 107 -28 16 -293 17 -4250 19 -3039 1 -4230 -2 -4255 -10z m8275 -2655
c0 -1273 -2 -2318 -6 -2323 -3 -5 -42 -8 -87 -6 -45 1 -82 -1 -82 -5 0 -3 -12
-3 -27 1 -16 4 -45 4 -66 1 -20 -4 -39 -4 -41 -1 -5 7 -82 5 -103 -3 -7 -3
-13 -2 -13 2 0 8 -85 6 -106 -2 -7 -3 -15 -2 -18 2 -5 8 -80 6 -103 -2 -7 -3
-13 -2 -13 2 0 8 -85 6 -106 -2 -7 -3 -15 -2 -18 2 -5 8 -80 6 -103 -2 -7 -3
-13 -2 -13 2 0 8 -85 6 -106 -2 -7 -3 -15 -2 -18 2 -5 8 -80 6 -103 -2 -7 -3
-13 -2 -13 2 0 4 -19 6 -42 5 -58 -3 -104 -3 -226 0 -56 1 -102 -1 -102 -5 0
-4 -7 -5 -15 -1 -23 8 -145 9 -145 1 0 -4 -7 -5 -15 -1 -23 8 -145 9 -145 1 0
-4 -7 -5 -15 -1 -20 7 -145 10 -145 2 0 -3 -24 -2 -54 1 -30 3 -64 2 -75 -2
-12 -4 -21 -4 -21 0 0 6 -94 7 -110 1 -3 -1 -9 0 -15 1 -5 1 -29 2 -52 1 -57
-2 -61 -2 -113 0 -25 0 -49 0 -55 -1 -5 -1 -14 -1 -20 0 -27 6 -145 4 -145 -2
0 -4 -6 -5 -12 -3 -22 9 -108 11 -108 3 0 -4 -6 -5 -14 -2 -21 8 -106 10 -106
2 0 -4 -6 -5 -12 -3 -22 9 -108 11 -108 3 0 -4 -6 -5 -14 -2 -20 8 -106 10
-106 3 0 -4 -15 -4 -33 1 -18 4 -43 3 -55 -1 -12 -5 -22 -5 -22 -1 0 8 -143 7
-165 -2 -8 -3 -15 -2 -15 2 0 6 -94 7 -110 1 -3 -1 -9 0 -15 1 -5 1 -29 2 -52
1 -57 -2 -61 -2 -113 0 -25 0 -49 0 -55 -1 -5 -1 -14 -1 -20 0 -27 6 -145 4
-145 -2 0 -4 -6 -5 -12 -3 -22 9 -108 11 -108 3 0 -4 -6 -5 -14 -2 -21 8 -106
10 -106 2 0 -4 -6 -5 -12 -3 -22 9 -108 11 -108 3 0 -4 -6 -5 -14 -2 -20 8
-106 10 -106 3 0 -4 -15 -4 -33 1 -18 4 -43 3 -55 -1 -12 -5 -22 -5 -22 -1 0
4 -43 7 -95 7 -52 0 -95 -3 -95 -7 0 -4 -7 -5 -15 -1 -23 8 -145 9 -145 1 0
-4 -7 -5 -15 -1 -23 8 -145 9 -145 1 0 -4 -7 -5 -15 -1 -21 7 -145 10 -145 2
0 -3 -22 -3 -50 1 -27 4 -50 3 -50 -1 0 -4 -12 -4 -27 0 -16 4 -45 4 -66 1
-20 -4 -39 -4 -41 -1 -5 7 -82 5 -103 -3 -7 -3 -13 -2 -13 2 0 8 -85 6 -106
-2 -7 -3 -15 -2 -18 2 -5 8 -80 6 -103 -2 -7 -3 -13 -2 -13 2 0 8 -85 6 -106
-2 -7 -3 -15 -2 -18 2 -5 8 -80 6 -103 -2 -7 -3 -13 -2 -13 2 0 8 -85 6 -106
-2 -7 -3 -15 -2 -18 2 -5 8 -80 6 -103 -2 -7 -3 -13 -2 -13 2 0 4 -19 6 -42 5
-58 -3 -104 -3 -226 0 -56 1 -102 -1 -102 -5 0 -4 -7 -5 -15 -1 -23 8 -145 9
-145 1 0 -4 -7 -5 -15 -1 -23 8 -145 9 -145 1 0 -4 -7 -5 -15 -1 -20 7 -145
10 -145 2 0 -3 -24 -2 -54 1 -30 3 -64 2 -75 -2 -12 -4 -21 -4 -21 0 0 6 -94
7 -110 1 -3 -1 -9 0 -15 1 -5 1 -29 2 -52 1 -57 -2 -61 -2 -113 0 -25 0 -49 0
-55 -1 -5 -1 -14 -1 -20 0 -29 6 -145 4 -145 -3 0 -5 -5 -5 -11 -2 -14 9 -134
9 -148 1 -6 -4 -11 -4 -11 1 0 4 -26 7 -57 6 -31 -2 -59 1 -62 6 -5 7 -7 4629
-2 4639 0 1 1816 1 4033 0 l4033 -3 0 -2313z"/>
<path d="M3442 1715 c-4 -5 -7 -48 -8 -95 -1 -99 -11 -206 -24 -250 -5 -17 -9
-31 -9 -33 2 -15 -19 -74 -42 -122 -39 -83 -91 -144 -164 -194 -40 -28 -162
-81 -187 -81 -18 -1 -52 -30 -67 -60 -16 -33 -10 -73 13 -99 l19 -21 1427 0
1427 0 20 23 c14 15 20 34 19 58 -3 61 -25 81 -120 113 -48 16 -89 33 -92 37
-3 5 -20 16 -39 25 -30 14 -49 31 -127 115 -20 21 -61 106 -82 169 -23 72 -38
197 -40 333 -1 50 -5 88 -11 88 -5 1 -437 2 -958 3 -628 1 -951 -2 -955 -9z"/>
</g>
</svg>
