<svg data-name="Layer 1" xmlns="http://www.w3.org/2000/svg" viewBox="0 0 128 128">
    <path d="M106.654 4.75H21.346A7.759 7.759 0 0 0 13.6 12.5v103a7.759 7.759 0 0 0 7.75 7.75h85.309a7.759 7.759 0 0 0 7.75-7.75v-103a7.759 7.759 0 0 0-7.755-7.75ZM17.1 25.942h93.8v76.115H17.1ZM21.346 8.25h85.309a4.255 4.255 0 0 1 4.25 4.25v9.942H17.1V12.5a4.255 4.255 0 0 1 4.246-4.25Zm85.309 111.5H21.346a4.255 4.255 0 0 1-4.25-4.25v-9.942H110.9v9.942a4.255 4.255 0 0 1-4.246 4.25Z"/>
    <circle cx="64" cy="112.654" r="4"/>
    <path d="M55.154 17.1h17.692a1.75 1.75 0 0 0 0-3.5H55.154a1.75 1.75 0 0 0 0 3.5Z"/>
</svg>
