<svg version="1.1" id="Layer_1" xmlns="http://www.w3.org/2000/svg" x="0" y="0" viewBox="0 0 32 32" style="enable-background:new 0 0 32 32" xml:space="preserve" fill="white">
    <style>
        .st0{clip-path:url(#SVGID_2_)}.st1{clip-path:url(#SVGID_4_)}
    </style>
    <path d="M23.336 27H8.664A3.668 3.668 0 0 1 5 23.336V8.664A3.668 3.668 0 0 1 8.664 5h14.672A3.668 3.668 0 0 1 27 8.664v14.672A3.668 3.668 0 0 1 23.336 27zM8.664 7C7.746 7 7 7.746 7 8.664v14.672C7 24.254 7.746 25 8.664 25h14.672c.918 0 1.664-.746 1.664-1.664V8.664C25 7.746 24.254 7 23.336 7H8.664z"/>
</svg>
