<?xml version="1.0" encoding="utf-8"?>
<svg viewBox="0 0 512 512" style="enable-background:new 0 0 512 512" xmlns="http://www.w3.org/2000/svg" fill="white">
  <path d="M 269.459 215.621 L 242.541 215.621 C 238.824 215.621 235.811 218.634 235.811 222.35 L 235.811 397.324 C 235.811 401.041 238.824 404.054 242.541 404.054 L 269.459 404.054 C 273.176 404.054 276.188 401.041 276.189 397.324 L 276.189 222.35 C 276.188 218.634 273.176 215.621 269.459 215.621 Z" style=""/>
  <path d="M 350.216 161.784 L 323.297 161.784 C 319.581 161.784 316.568 164.797 316.567 168.513 L 316.567 397.324 C 316.568 401.041 319.581 404.054 323.297 404.054 L 350.216 404.054 C 353.932 404.054 356.945 401.041 356.945 397.324 L 356.945 168.513 C 356.946 164.797 353.933 161.784 350.216 161.784 Z" style=""/>
  <path d="M 430.973 107.945 L 404.055 107.945 C 400.338 107.945 397.325 110.958 397.325 114.674 L 397.325 397.324 C 397.325 401.041 400.338 404.054 404.055 404.054 L 430.973 404.054 C 434.69 404.054 437.702 401.041 437.703 397.324 L 437.703 114.674 C 437.703 110.958 434.69 107.945 430.973 107.945 Z" style=""/>
  <path d="M 188.703 269.459 L 161.784 269.459 C 158.067 269.46 155.055 272.473 155.054 276.189 L 155.054 397.324 C 155.055 401.041 158.067 404.054 161.784 404.054 L 188.703 404.054 C 192.419 404.054 195.432 401.041 195.432 397.324 L 195.432 276.189 C 195.432 272.473 192.419 269.46 188.703 269.459 Z" style=""/>
  <path d="M 107.945 323.297 L 81.027 323.297 C 77.31 323.297 74.297 326.31 74.297 330.026 L 74.297 397.323 C 74.297 401.04 77.31 404.053 81.027 404.053 L 107.945 404.053 C 111.662 404.053 114.674 401.04 114.675 397.323 L 114.675 330.026 C 114.675 326.31 111.662 323.297 107.945 323.297 Z" style=""/>
</svg>