<svg xmlns="http://www.w3.org/2000/svg" viewBox="0 0 64 64" style="enable-background:new 0 0 64 64" xml:space="preserve">
    <path style="fill:#354047" d="M60.388 45.914a4.162 4.162 0 0 0-.218-2.097l-6.981-18.424a4.187 4.187 0 0 0-3.895-2.689h-2.24V.737h-2.102v21.966H19.048V.737h-2.102v21.966h-2.24a4.188 4.188 0 0 0-3.895 2.689L3.83 43.817a4.16 4.16 0 0 0-.218 2.097h-.055v13.921A4.169 4.169 0 0 0 7.721 64h48.557a4.17 4.17 0 0 0 4.165-4.165V45.914h-.055zM5.796 44.562l6.981-18.424a2.073 2.073 0 0 1 1.929-1.332h34.589c.851 0 1.627.535 1.929 1.332l6.981 18.424a2.035 2.035 0 0 1-.231 1.902 2.037 2.037 0 0 1-1.697.891H7.724a2.032 2.032 0 0 1-1.697-.891 2.033 2.033 0 0 1-.231-1.902zm50.482 17.336H7.721a2.065 2.065 0 0 1-2.062-2.063V48.902a4.16 4.16 0 0 0 2.065.555h48.551c.736 0 1.444-.2 2.065-.556v10.933a2.064 2.064 0 0 1-2.062 2.064zm-46.145-7.287h7.846v2.102h-7.846v-2.102zm38.922 0h4.732v2.102h-4.732v-2.102zm-7.785 0h4.733v2.102H41.27v-2.102zm-7.784 0h4.733v2.102h-4.733v-2.102z"/>
    <path style="fill:#feba00" d="M39.279 4.841a1.49 1.49 0 0 1-.107-.086A10.945 10.945 0 0 0 35.9 2.807a11.145 11.145 0 0 0-7.802 0 10.974 10.974 0 0 0-3.273 1.951l-.71-.777-.636-.837.013-.01a12.935 12.935 0 0 1 3.86-2.293A13.26 13.26 0 0 1 36.645.84a13.099 13.099 0 0 1 3.909 2.331l-1.275 1.67zm-1.856 1.624a8.567 8.567 0 0 0-2.5-1.425 8.692 8.692 0 0 0-5.846 0 8.481 8.481 0 0 0-2.487 1.415l1.331 1.627a6.421 6.421 0 0 1 1.872-1.066 6.574 6.574 0 0 1 4.411 0 6.485 6.485 0 0 1 1.887 1.077l1.332-1.628zM34.19 9.657c-1.286-.838-3.079-.846-4.374-.006l1.145 1.764c.606-.394 1.482-.386 2.081.003l1.148-1.761z"/>
</svg>
