<svg xmlns="http://www.w3.org/2000/svg" viewBox="0 0 64 64" style="enable-background:new 0 0 64 64" xml:space="preserve">
    <path d="M62.417 32.926a42.983 42.983 0 0 0-19.479-11.193l.566-2.165A45.211 45.211 0 0 1 64 31.344l-1.583 1.582zM1.583 32.926 0 31.344a45.205 45.205 0 0 1 20.571-11.795l.564 2.166A42.99 42.99 0 0 0 1.583 32.926zM54.616 40.728c-12.47-12.469-32.761-12.469-45.231 0l-1.583-1.583c13.342-13.342 35.055-13.342 48.397 0l-1.583 1.583z"/>
    <path d="M46.814 48.53c-8.171-8.168-21.46-8.166-29.626 0l-1.583-1.583c9.039-9.04 23.749-9.041 32.792 0l-1.583 1.583zM32.001 63.77a5.932 5.932 0 0 1-4.226-1.751c-1.129-1.129-1.751-2.63-1.751-4.226s.622-3.097 1.751-4.226a5.935 5.935 0 0 1 4.226-1.751 5.93 5.93 0 0 1 4.226 1.751 5.936 5.936 0 0 1 1.751 4.226 5.935 5.935 0 0 1-1.751 4.226 5.932 5.932 0 0 1-4.226 1.751zm0-9.714c-.998 0-1.937.389-2.643 1.095s-1.095 1.645-1.095 2.643c0 .999.389 1.937 1.095 2.644 1.412 1.412 3.874 1.412 5.286 0a3.715 3.715 0 0 0 1.095-2.644c0-.998-.389-1.937-1.095-2.643a3.712 3.712 0 0 0-2.643-1.095z"/>
    <path style="fill:#feba00" d="M31.341.23a8.398 8.398 0 0 0-8.395 8.395V22.438c0 1.231.996 2.239 2.239 2.239h12.312a2.246 2.246 0 0 0 2.239-2.239V8.624c0-4.634-3.772-8.394-8.395-8.394zm-6.156 8.394a6.152 6.152 0 0 1 6.156-6.156 6.159 6.159 0 0 1 6.156 6.156v2.955H25.185V8.624zm12.312 13.812H25.185v-8.619h12.312v8.619z"/>
    <path style="fill:#feba00" d="M30.222 17.623h2.239v3.022h-2.239z"/>
</svg>
