<svg xmlns="http://www.w3.org/2000/svg" viewBox="0 0 64 64" style="enable-background:new 0 0 64 64" xml:space="preserve">
    <path d="M62.417 32.931a42.987 42.987 0 0 0-19.479-11.193l.566-2.165A45.218 45.218 0 0 1 64 31.348l-1.583 1.583zM21.135 21.719l-.564-2.166A45.215 45.215 0 0 0 0 31.348l1.583 1.583a42.974 42.974 0 0 1 19.552-11.212zM56.198 39.15c-6.463-6.464-15.057-10.023-24.197-10.023-9.141 0-17.735 3.56-24.198 10.023l1.583 1.583c6.04-6.041 14.072-9.368 22.615-9.368 8.542 0 16.574 3.327 22.614 9.368l1.583-1.583zm-7.803 7.802c-9.039-9.04-23.75-9.041-32.791 0l1.583 1.583c8.166-8.167 21.457-8.168 29.625 0l1.583-1.583zM36.226 62.024a5.985 5.985 0 0 0 0-8.452 5.984 5.984 0 0 0-8.453 0 5.985 5.985 0 0 0 0 8.452 5.957 5.957 0 0 0 4.226 1.747 5.953 5.953 0 0 0 4.227-1.747zm-6.87-1.582a3.744 3.744 0 0 1 0-5.287 3.743 3.743 0 0 1 5.287 0 3.744 3.744 0 0 1 0 5.287 3.746 3.746 0 0 1-5.287 0z"/>
    <path style="fill:#feba00" d="M31.337.228c-4.629 0-8.395 3.766-8.395 8.395h2.239c0-3.395 2.762-6.156 6.156-6.156s6.156 2.762 6.156 6.156v2.962H25.181a2.242 2.242 0 0 0-2.239 2.239v8.613a2.242 2.242 0 0 0 2.239 2.239h12.312a2.242 2.242 0 0 0 2.239-2.239V8.624c0-4.63-3.766-8.396-8.395-8.396zm-6.156 22.208v-8.613h12.312v.114l.001 8.499H25.181z"/>
</svg>
