<svg xmlns="http://www.w3.org/2000/svg" viewBox="0 0 250 55.573" height="56" width="250" style="width:250px;height:55.5731px;position:absolute;top:50%;left:50%;z-index:0;cursor:pointer;overflow:visible;transform:translate(-50%,-50%) scale(.832)">
    <defs>
        <linearGradient id="a">
            <stop stop-color="#7f00ff" offset="0"/>
            <stop stop-color="#e100ff" offset="1"/>
        </linearGradient>
    </defs>
    <path d="M27.8 15.52h5.84L29.12 40h-8.88l-3.2-14.28L13.64 40H4.28L.32 15.52h6.12L9.2 33.84l3.6-14.28h8.52l3.44 14.28zM40.96 27.6c.6.2 1.28.36 2 .44.72.12 1.4.16 2.04.16.8 0 2.84-.16 2.84-1.32 0-1.24-1.76-1.28-2.64-1.28-1.76 0-3.28.4-4.24 2zm11.32 6.16v5.6c-2.24.52-4.48.88-6.8.88-6.36 0-11.08-3.72-11.08-10.16 0-6.36 4.56-10.28 10.6-10.28 4.12 0 8.88 1.96 8.88 6.64 0 4.64-5.04 6.36-8.92 6.36-1.48 0-2.96-.4-4.32-.96.8 2.24 3.2 2.6 5.28 2.6 1.08 0 2.16-.04 3.24-.2 1-.08 2.16-.2 3.12-.48zM62.84 30c0 2.96 1.48 4.64 4.48 4.64.84 0 1.6-.12 2.2-.4 1.12-.44 1.88-1.28 2.28-2.44.16-.56.24-1.16.24-1.8s-.08-1.24-.24-1.8c-.44-1.24-1.12-1.92-2.28-2.48-.6-.24-1.36-.36-2.2-.36-3 0-4.48 1.68-4.48 4.64zm-6-18h6v10c1.36-1.56 3.2-2.2 5.24-2.2 5.84 0 9.96 4.68 9.96 10.28 0 6.32-4.68 10.12-10.64 10.12-6.2 0-10.56-4.08-10.56-10.2V12zm36.04 22.64c4.36 0 6.6-2.8 6.6-6.88 0-4.32-2.4-6.88-6.6-6.88-4.4 0-6.6 2.8-6.6 6.88 0 4.24 2.44 6.88 6.6 6.88zm0 5.56c-7.52 0-12.6-5.12-12.6-12.44 0-7.56 5.32-12.44 12.6-12.44 7.56 0 12.6 5.08 12.6 12.44 0 7.6-5.28 12.44-12.6 12.44zm15.12-.8v-5.64c.48.12 1.08.24 1.76.32.68.12 1.4.2 2.16.24s1.52.08 2.32.12 1.56.08 2.24.08c1.88 0 3.2-.12 4-.32.76-.2 1.16-.56 1.16-1.12 0-.48-.36-.84-.72-1.12-1.32-.88-2.88-1.24-4.44-1.6-4.4-.88-8.44-2.64-8.44-7.68 0-5.96 5.64-7.36 10.48-7.36 2.68 0 5.4.28 8 .92v5.64c-.4-.12-.92-.2-1.56-.32-.68-.08-1.36-.16-2.12-.24-1.56-.16-3.04-.24-4.6-.24-.88 0-2.72 0-3.56.32-.56.2-.92.44-.92 1.08 0 .32.08.6.24.84.16.28.44.48.8.68 1.08.6 2.48.96 3.68 1.24 1 .24 2 .52 3.04.8 3.52.96 5.84 2.92 5.84 6.68 0 6.2-6.16 7.52-11.12 7.52-2.72 0-5.56-.2-8.24-.84z" transform="matrix(1.96788 0 0 1.96788 -.63 -23.615)" fill="url(&quot;#a&quot;)"/>
</svg>
