<svg xmlns="http://www.w3.org/2000/svg" viewBox="0 0 24 24">
<path d="M10 13H5a1 1 0 0 0 0 2h2.586l-5.293 5.293a1 1 0 0 0 1.414 1.414L9 16.414V19a1 1 0 0 0 2 0v-5a1 1 0 0 0-1-1zM16.414 15H19a1 1 0 0 0 0-2h-5a1 1 0 0 0-1 1v5a1 1 0 0 0 2 0v-2.586l5.293 5.293a1 1 0 0 0 1.414-1.414zM10 4a1 1 0 0 0-1 1v2.586L3.707 2.293a1 1 0 0 0-1.414 1.414L7.586 9H5a1 1 0 0 0 0 2h5a1 1 0 0 0 1-1V5a1 1 0 0 0-1-1zM14 11h5a1 1 0 0 0 0-2h-2.586l5.293-5.293a1 1 0 1 0-1.414-1.414L15 7.586V5a1 1 0 0 0-2 0v5a1 1 0 0 0 1 1z" style="fill: white"/>
</svg>